<svg id="visual" viewBox="0 0 900 600" width="900" height="600" xmlns="http://www.w3.org/2000/svg" xmlns:xlink="http://www.w3.org/1999/xlink" version="1.1"><path d="M0 385L18.8 402.8C37.7 420.7 75.3 456.3 112.8 462.2C150.3 468 187.7 444 225.2 439C262.7 434 300.3 448 337.8 465C375.3 482 412.7 502 450.2 501.8C487.7 501.7 525.3 481.3 562.8 465.3C600.3 449.3 637.7 437.7 675.2 432.7C712.7 427.7 750.3 429.3 787.8 443.8C825.3 458.3 862.7 485.7 881.3 499.3L900 513L900 601L881.3 601C862.7 601 825.3 601 787.8 601C750.3 601 712.7 601 675.2 601C637.7 601 600.3 601 562.8 601C525.3 601 487.7 601 450.2 601C412.7 601 375.3 601 337.8 601C300.3 601 262.7 601 225.2 601C187.7 601 150.3 601 112.8 601C75.3 601 37.7 601 18.8 601L0 601Z" fill="#22c55e" stroke-linecap="round" stroke-linejoin="miter"></path></svg>